{
	"asset":{
		"generator":"Khronos glTF Blender I/O v5.0.21",
		"version":"2.0"
	},
	"scene":0,
	"scenes":[
		{
			"name":"Scene",
			"nodes":[
				0
			]
		}
	],
	"nodes":[
		{
			"mesh":0,
			"name":"Cube"
		}
	],
	"materials":[
		{
			"doubleSided":true,
			"name":"Material",
			"pbrMetallicRoughness":{
				"baseColorFactor":[
					0.800000011920929,
					0.800000011920929,
					0.800000011920929,
					1
				],
				"metallicFactor":0,
				"roughnessFactor":0.5
			}
		}
	],
	"meshes":[
		{
			"name":"Cube",
			"primitives":[
				{
					"attributes":{
						"POSITION":0,
						"NORMAL":1,
						"TEXCOORD_0":2
					},
					"indices":3,
					"material":0
				}
			]
		}
	],
	"accessors":[
		{
			"bufferView":0,
			"componentType":5126,
			"count":139,
			"max":[
				1,
				0.2874998450279236,
				1.0511387586593628
			],
			"min":[
				-1,
				-0.13152611255645752,
				-1
			],
			"type":"VEC3"
		},
		{
			"bufferView":1,
			"componentType":5126,
			"count":139,
			"type":"VEC3"
		},
		{
			"bufferView":2,
			"componentType":5126,
			"count":139,
			"type":"VEC2"
		},
		{
			"bufferView":3,
			"componentType":5123,
			"count":612,
			"type":"SCALAR"
		}
	],
	"bufferViews":[
		{
			"buffer":0,
			"byteLength":1668,
			"byteOffset":0,
			"target":34962
		},
		{
			"buffer":0,
			"byteLength":1668,
			"byteOffset":1668,
			"target":34962
		},
		{
			"buffer":0,
			"byteLength":1112,
			"byteOffset":3336,
			"target":34962
		},
		{
			"buffer":0,
			"byteLength":1224,
			"byteOffset":4448,
			"target":34963
		}
	],
	"buffers":[
		{
			"byteLength":5672,
			"uri":"CupidStage.bin"
		}
	]
}
